<svg class="svg-icon" style="width: 1em;height: 1em;vertical-align: middle;fill: currentColor;overflow: hidden;" viewBox="0 0 1024 1024" version="1.1" xmlns="http://www.w3.org/2000/svg"><path d="M671.5 155.88h61.44a18.14 18.14 0 0 1 18.16 18.12v154.84h-97.74V174a18.14 18.14 0 0 1 18.14-18.12z" fill="#9775FA" /><path d="M792.22 356.46V731.8A72.24 72.24 0 0 1 720 804H304.12a72.24 72.24 0 0 1-72.3-72.2V355.26L390 228.34h242.64z" fill="#F06595" /><path d="M880 469.24a54.34 54.34 0 0 1-68 13.76 57.28 57.28 0 0 1-8.24-5.48L538.46 264.5a43.42 43.42 0 0 0-54.34 0L220.2 476.2a52.24 52.24 0 0 1-8.2 5.46 54.18 54.18 0 0 1-59.72-89.9l59.72-48L381.42 208l102.74-82.42a43.42 43.42 0 0 1 54.34 0L641.18 208 812 345.16l59.72 48a54.14 54.14 0 0 1 8.28 76.08z" fill="#845EF7" /><path d="M447.12 554.2h129.78a20.4 20.4 0 0 1 20.4 20.4V804h-170.56V574.6a20.4 20.4 0 0 1 20.38-20.4z" fill="#E64980" /><path d="M722 748m-164 0a164 164 0 1 0 328 0 164 164 0 1 0-328 0Z" fill="#FCC419" /><path d="M722 748m-130.86 0a130.86 130.86 0 1 0 261.72 0 130.86 130.86 0 1 0-261.72 0Z" fill="#FFD43B" /><path d="M750 712a8.98 8.98 0 0 1-11.44-2 16.2 16.2 0 0 0-4-3.64 22.12 22.12 0 0 0-23.88 1.9 14 14 0 0 0-5.28 11.2q0 9.3 13.84 15l12.68 5.18q15.48 6.26 22.64 15.28a34.44 34.44 0 0 1 7.16 22.12A38.86 38.86 0 0 1 750 806a40.14 40.14 0 0 1-29.24 11.54 39.12 39.12 0 0 1-27.34-9.8 40.32 40.32 0 0 1-10.68-16.82 9.84 9.84 0 0 1 7.08-12.9 9.86 9.86 0 0 1 11.52 7.1 18.94 18.94 0 0 0 2.86 6.22 22 22 0 0 0 32.2 2.22 20.8 20.8 0 0 0 6-15.24 21.4 21.4 0 0 0-1.04-6.8 17.26 17.26 0 0 0-3.22-5.68 25.72 25.72 0 0 0-5.64-4.86 54.36 54.36 0 0 0-8.24-4.32l-12.26-5.04q-26-11.04-26-32.28a30.62 30.62 0 0 1 10.96-24 39.56 39.56 0 0 1 27.26-9.72 36 36 0 0 1 28 12.54A9.06 9.06 0 0 1 750 712z" fill="#F08C00" /><path d="M722 836.94a10 10 0 0 1-10-10v-11.44a10 10 0 0 1 20.14 0v11.44a10 10 0 0 1-10.14 10zM722 698.42a10 10 0 0 1-10-10v-11.44a10 10 0 0 1 20.14 0v11.44a10 10 0 0 1-10.14 10z" fill="#F08C00" /></svg>